HIERARCHY
ROOT Hips
{
    OFFSET 0.000000 0.000000 0.000000
    CHANNELS 6 Xposition Yposition Zposition Zrotation Yrotation Xrotation
    JOINT Chest
    {
        OFFSET 0.000000 1.634758 -0.000000
        CHANNELS 3 Zrotation Yrotation Xrotation
        JOINT Chest2
        {
            OFFSET 0.000000 2.197341 0.000000
            CHANNELS 3 Zrotation Yrotation Xrotation
            JOINT Neck
            {
                OFFSET 0.000000 0.961544 0.000000
                CHANNELS 3 Zrotation Yrotation Xrotation
                JOINT Head
                {
                    OFFSET 0.000000 0.632542 -0.032565
                    CHANNELS 3 Zrotation Yrotation Xrotation
                    End Site
                    {
                        OFFSET -0.000001 0.439502 2.922845
                    }
                }
            }
            JOINT LeftCollar
            {
                OFFSET 0.167536 0.778237 -0.168280
                CHANNELS 3 Zrotation Yrotation Xrotation
                JOINT LeftShoulder
                {
                    OFFSET 0.831514 -0.002900 0.006458
                    CHANNELS 3 Zrotation Yrotation Xrotation
                    JOINT LeftElbow
                    {
                        OFFSET 2.272872 -0.026639 0.059314
                        CHANNELS 3 Zrotation Yrotation Xrotation
                        JOINT LeftWrist
                        {
                            OFFSET 2.081982 -0.024402 0.054333
                            CHANNELS 3 Zrotation Yrotation Xrotation
                            JOINT LeftHandThumb1
                            {
                                OFFSET 0.218903 -0.128645 0.283837
                                CHANNELS 3 Zrotation Yrotation Xrotation
                                JOINT LeftHandThumb2
                                {
                                    OFFSET 0.137157 -0.025101 0.077902
                                    CHANNELS 3 Zrotation Yrotation Xrotation
                                    JOINT LeftHandThumb3
                                    {
                                        OFFSET 0.161892 -0.076693 0.038060
                                        CHANNELS 3 Zrotation Yrotation Xrotation
                                        End Site
                                        {
                                            OFFSET 0.248416 -0.044487 0.090259
                                        }
                                    }
                                }
                            }
                            JOINT LeftHandFore1
                            {
                                OFFSET 0.767340 -0.016076 0.196678
                                CHANNELS 3 Zrotation Yrotation Xrotation
                                JOINT LeftHandFore2
                                {
                                    OFFSET 0.208385 -0.058937 0.009884
                                    CHANNELS 3 Zrotation Yrotation Xrotation
                                    JOINT LeftHandFore3
                                    {
                                        OFFSET 0.076811 -0.103961 0.007416
                                        CHANNELS 3 Zrotation Yrotation Xrotation
                                        End Site
                                        {
                                            OFFSET 0.051727 -0.186125 0.006962
                                        }
                                    }
                                }
                            }
                            JOINT LeftHandMiddle1
                            {
                                OFFSET 0.709887 -0.008320 0.018526
                                CHANNELS 3 Zrotation Yrotation Xrotation
                                JOINT LeftHandMiddle2
                                {
                                    OFFSET 0.131219 -0.206763 0.009718
                                    CHANNELS 3 Zrotation Yrotation Xrotation
                                    JOINT LeftHandMiddle3
                                    {
                                        OFFSET 0.013126 -0.145528 0.005712
                                        CHANNELS 3 Zrotation Yrotation Xrotation
                                        End Site
                                        {
                                            OFFSET -0.128658 -0.197556 0.006991
                                        }
                                    }
                                }
                            }
                            JOINT LeftHandRing1
                            {
                                OFFSET 0.743817 -0.005823 -0.153668
                                CHANNELS 3 Zrotation Yrotation Xrotation
                                JOINT LeftHandRing2
                                {
                                    OFFSET 0.155530 -0.317077 -0.002431
                                    CHANNELS 3 Zrotation Yrotation Xrotation
                                    JOINT LeftHandRing3
                                    {
                                        OFFSET -0.028393 -0.133409 0.001243
                                        CHANNELS 3 Zrotation Yrotation Xrotation
                                        End Site
                                        {
                                            OFFSET -0.085607 -0.084200 -0.001245
                                        }
                                    }
                                }
                            }
                            JOINT LeftHandLittle1
                            {
                                OFFSET 0.689408 -0.053302 -0.308304
                                CHANNELS 3 Zrotation Yrotation Xrotation
                                JOINT LeftHandLittle2
                                {
                                    OFFSET 0.162585 -0.106991 -0.013161
                                    CHANNELS 3 Zrotation Yrotation Xrotation
                                    JOINT LeftHandLittle3
                                    {
                                        OFFSET 0.055687 -0.106265 -0.010141
                                        CHANNELS 3 Zrotation Yrotation Xrotation
                                        End Site
                                        {
                                            OFFSET 0.045702 -0.184712 -0.009019
                                        }
                                    }
                                }
                            }
                        }
                    }
                }
            }
            JOINT RightCollar
            {
                OFFSET -0.167536 0.778237 -0.168280
                CHANNELS 3 Zrotation Yrotation Xrotation
                JOINT RightShoulder
                {
                    OFFSET -0.831514 -0.002900 0.006457
                    CHANNELS 3 Zrotation Yrotation Xrotation
                    JOINT RightElbow
                    {
                        OFFSET -2.272872 -0.026639 0.059313
                        CHANNELS 3 Zrotation Yrotation Xrotation
                        JOINT RightWrist
                        {
                            OFFSET -2.081982 -0.024402 0.054331
                            CHANNELS 3 Zrotation Yrotation Xrotation
                            JOINT RightHandThumb1
                            {
                                OFFSET -0.218911 -0.128571 0.283837
                                CHANNELS 3 Zrotation Yrotation Xrotation
                                JOINT RightHandThumb2
                                {
                                    OFFSET -0.137157 -0.025101 0.077902
                                    CHANNELS 3 Zrotation Yrotation Xrotation
                                    JOINT RightHandThumb3
                                    {
                                        OFFSET -0.168996 -0.064048 0.029626
                                        CHANNELS 3 Zrotation Yrotation Xrotation
                                        End Site
                                        {
                                            OFFSET -0.226202 -0.084097 0.116605
                                        }
                                    }
                                }
                            }
                            JOINT RightHandFore1
                            {
                                OFFSET -0.767344 -0.015991 0.196679
                                CHANNELS 3 Zrotation Yrotation Xrotation
                                JOINT RightHandFore2
                                {
                                    OFFSET -0.208401 -0.058890 0.009884
                                    CHANNELS 3 Zrotation Yrotation Xrotation
                                    JOINT RightHandFore3
                                    {
                                        OFFSET -0.077110 -0.103993 0.001270
                                        CHANNELS 3 Zrotation Yrotation Xrotation
                                        End Site
                                        {
                                            OFFSET -0.052018 -0.186172 0.000847
                                        }
                                    }
                                }
                            }
                            JOINT RightHandMiddle1
                            {
                                OFFSET -0.709887 -0.008302 0.018525
                                CHANNELS 3 Zrotation Yrotation Xrotation
                                JOINT RightHandMiddle2
                                {
                                    OFFSET -0.131196 -0.206773 0.009719
                                    CHANNELS 3 Zrotation Yrotation Xrotation
                                    JOINT RightHandMiddle3
                                    {
                                        OFFSET -0.013273 -0.145620 0.001673
                                        CHANNELS 3 Zrotation Yrotation Xrotation
                                        End Site
                                        {
                                            OFFSET 0.128036 -0.197897 -0.008600
                                        }
                                    }
                                }
                            }
                            JOINT RightHandRing1
                            {
                                OFFSET -0.743819 -0.005785 -0.153669
                                CHANNELS 3 Zrotation Yrotation Xrotation
                                JOINT RightHandRing2
                                {
                                    OFFSET -0.155553 -0.317066 -0.002428
                                    CHANNELS 3 Zrotation Yrotation Xrotation
                                    JOINT RightHandRing3
                                    {
                                        OFFSET 0.027764 -0.132976 -0.012310
                                        CHANNELS 3 Zrotation Yrotation Xrotation
                                        End Site
                                        {
                                            OFFSET 0.085093 -0.083838 -0.012269
                                        }
                                    }
                                }
                            }
                            JOINT RightHandLittle1
                            {
                                OFFSET -0.689403 -0.053298 -0.308303
                                CHANNELS 3 Zrotation Yrotation Xrotation
                                JOINT RightHandLittle2
                                {
                                    OFFSET -0.162591 -0.106988 -0.013161
                                    CHANNELS 3 Zrotation Yrotation Xrotation
                                    JOINT RightHandLittle3
                                    {
                                        OFFSET -0.055770 -0.106400 -0.008016
                                        CHANNELS 3 Zrotation Yrotation Xrotation
                                        End Site
                                        {
                                            OFFSET -0.045306 -0.184093 -0.018599
                                        }
                                    }
                                }
                            }
                        }
                    }
                }
            }
        }
    }
    JOINT LeftHip
    {
        OFFSET 0.685143 0.673822 -0.044491
        CHANNELS 3 Zrotation Yrotation Xrotation
        JOINT LeftKnee
        {
            OFFSET 0.085364 -3.750208 0.017676
            CHANNELS 3 Zrotation Yrotation Xrotation
            JOINT LeftAnkle
            {
                OFFSET 0.094583 -4.155206 0.019585
                CHANNELS 3 Zrotation Yrotation Xrotation
                JOINT LeftToe
                {
                    OFFSET -0.000000 -0.395925 0.621478
                    CHANNELS 3 Zrotation Yrotation Xrotation
                    End Site
                    {
                        OFFSET -0.000000 -0.077878 0.321152
                    }
                }
            }
        }
    }
    JOINT RightHip
    {
        OFFSET -0.685143 0.673822 -0.044492
        CHANNELS 3 Zrotation Yrotation Xrotation
        JOINT RightKnee
        {
            OFFSET -0.085364 -3.750208 0.017677
            CHANNELS 3 Zrotation Yrotation Xrotation
            JOINT RightAnkle
            {
                OFFSET -0.094583 -4.155206 0.019585
                CHANNELS 3 Zrotation Yrotation Xrotation
                JOINT RightToe
                {
                    OFFSET -0.000000 -0.395925 0.621478
                    CHANNELS 3 Zrotation Yrotation Xrotation
                    End Site
                    {
                        OFFSET -0.000000 -0.077878 0.321152
                    }
                }
            }
        }
    }
}
MOTION
Frames: 7
Frame Time: 0.033333
0.348856 8.805387 0.047275 -168.387238 9.353294 -171.448959 12.527139 12.707838 -5.315292 1.220060 -2.069504 -2.822743 -10.910416 3.463613 -0.400741 -0.134755 2.615659 2.188069 -13.211290 2.161348 -0.485691 -38.388725 -1.380010 88.315834 1.441210 -71.565308 -2.006804 108.520363 -16.499346 -62.225857 -0.000010 0.000014 0.000014 6.818649 -11.888711 -2.307830 -2.435978 -4.746960 -1.516879 -10.908322 -0.774758 0.879493 35.909630 1.172166 -0.022203 22.287992 1.027691 -0.280938 -7.241930 -0.194835 0.135360 27.387110 0.843209 -0.114292 37.020382 1.071068 -0.071656 -22.782177 2.426638 -0.589152 39.720078 0.001979 -0.987902 32.505680 0.911148 -0.261200 -70.066917 3.691247 -5.390124 23.771242 0.783100 -1.103211 22.988201 -0.142563 -0.174627 -14.088108 5.710927 -0.531421 -56.475243 17.096731 -87.564331 -0.997623 66.402229 -1.531717 -64.380951 -24.470097 -27.590034 0.000001 -0.000000 0.000000 -7.168107 7.025303 -9.898567 -5.493077 -0.261443 -0.897553 10.908347 0.774753 0.879298 -35.810265 -0.370534 -2.818775 -22.260855 0.277025 -1.603446 7.241905 0.194912 0.135370 -27.325106 -0.812137 -1.702224 -36.925575 -1.344993 -2.169766 22.782135 -2.426655 -0.589087 -39.611828 1.022668 -3.370428 -32.359020 1.976736 -3.263181 70.066933 -3.691233 -5.389802 -23.274902 4.140882 2.221675 -22.710161 3.115314 1.272227 8.272155 4.793406 -6.795903 0.000000 -0.000000 0.000000 5.006326 9.304050 -4.792853 -0.000000 -0.000001 0.000001 16.972839 12.352585 -6.077497 -0.000000 -0.000000 0.000000 -5.885689 -1.152508 -0.631227 0.000000 -0.000000 0.000001
0.343210 8.809053 0.071781 -168.320114 9.151918 -170.580200 12.502336 12.949218 -5.602888 1.146528 -2.096122 -2.988449 -10.621798 3.640727 -1.565811 -0.150049 2.912011 -0.045169 -13.143992 2.168786 -0.489224 -37.895863 -1.468163 88.306114 1.510738 -72.172829 -2.080008 109.312538 -17.134684 -62.701698 0.000013 0.000014 0.000012 6.818651 -11.888712 -2.307829 -2.435980 -4.746956 -1.516880 -10.908282 -0.774763 0.879471 35.909630 1.172166 -0.022200 22.287979 1.027695 -0.280938 -7.241901 -0.194840 0.135338 27.387110 0.843211 -0.114291 37.020374 1.071068 -0.071660 -22.782160 2.426631 -0.589170 39.720085 0.001979 -0.987901 32.505688 0.911152 -0.261196 -70.066902 3.691227 -5.390127 23.771246 0.783101 -1.103213 22.988197 -0.142567 -0.174625 -13.563138 5.641935 -0.518159 -54.825760 21.910168 -93.135635 -1.532195 72.351883 -2.102529 -65.877533 -18.197205 -27.870205 -0.000003 0.000003 -0.000011 -7.168105 7.025310 -9.898570 -5.493078 -0.261449 -0.897556 10.908330 0.774750 0.879282 -35.810261 -0.370532 -2.818772 -22.260860 0.277022 -1.603442 7.241904 0.194910 0.135364 -27.325106 -0.812138 -1.702222 -36.925579 -1.344988 -2.169766 22.782139 -2.426658 -0.589099 -39.611828 1.022669 -3.370429 -32.359013 1.976738 -3.263181 70.066940 -3.691227 -5.389805 -23.274899 4.140882 2.221674 -22.710159 3.115312 1.272226 8.292867 4.574775 -7.807582 -0.000000 -0.000000 -0.000000 5.218531 9.438874 -4.612506 -0.000000 0.000000 -0.000003 16.879902 12.126352 -7.065063 -0.000000 -0.000000 0.000000 -5.680177 -0.926863 -0.572802 0.000000 0.000000 0.000000
0.338012 8.812848 0.094473 -168.257874 8.932631 -169.774734 12.484106 13.156680 -5.807738 1.086493 -2.120664 -3.080523 -10.305897 3.809886 -2.743700 -0.164830 3.198293 -2.296638 -13.072615 2.159324 -0.491912 -37.387184 -1.620571 88.285767 1.590127 -72.818497 -2.163293 110.071388 -17.821487 -63.077240 -0.000006 -0.000000 0.000005 6.818652 -11.888709 -2.307831 -2.435982 -4.746965 -1.516878 -10.908310 -0.774764 0.879471 35.909626 1.172161 -0.022204 22.287985 1.027693 -0.280938 -7.241911 -0.194845 0.135341 27.387114 0.843207 -0.114291 37.020378 1.071069 -0.071653 -22.782166 2.426626 -0.589170 39.720078 0.001977 -0.987901 32.505688 0.911152 -0.261196 -70.066910 3.691226 -5.390124 23.771252 0.783099 -1.103214 22.988190 -0.142568 -0.174626 -13.027702 5.549706 -0.503245 -53.504803 22.846371 -92.831818 -2.538913 77.987343 -3.143085 -71.538284 -17.265999 -26.812117 -0.000005 0.000007 -0.000004 -7.168108 7.025309 -9.898566 -5.493077 -0.261454 -0.897555 10.908332 0.774748 0.879293 -35.810257 -0.370530 -2.818774 -22.260857 0.277016 -1.603437 7.241905 0.194905 0.135367 -27.325104 -0.812132 -1.702226 -36.925575 -1.344989 -2.169764 22.782135 -2.426650 -0.589088 -39.611828 1.022669 -3.370426 -32.359009 1.976741 -3.263183 70.066933 -3.691230 -5.389799 -23.274902 4.140882 2.221672 -22.710157 3.115317 1.272230 8.322886 4.357912 -8.753569 -0.000000 -0.000000 0.000000 5.404571 9.546141 -4.442372 -0.000000 -0.000000 -0.000003 16.806929 11.896392 -7.985516 0.000000 -0.000000 0.000000 -5.502323 -0.736070 -0.518983 -0.000000 -0.000000 0.000002
0.333400 8.816491 0.114187 -168.203781 8.697548 -169.074799 12.477854 13.327785 -5.900678 1.044739 -2.143401 -3.076407 -9.962747 3.953328 -3.932035 -0.177090 3.435610 -4.539077 -12.998357 2.129994 -0.493922 -36.873135 -1.853641 88.251266 1.679356 -73.489685 -2.256561 110.803261 -18.546543 -63.383049 0.000009 0.000010 0.000002 6.818652 -11.888711 -2.307833 -2.435981 -4.746962 -1.516877 -10.908290 -0.774760 0.879470 35.909626 1.172163 -0.022200 22.287989 1.027693 -0.280938 -7.241909 -0.194835 0.135338 27.387114 0.843209 -0.114292 37.020382 1.071062 -0.071660 -22.782175 2.426633 -0.589172 39.720078 0.001976 -0.987902 32.505680 0.911148 -0.261198 -70.066910 3.691231 -5.390132 23.771242 0.783100 -1.103214 22.988201 -0.142565 -0.174627 -12.495664 5.433579 -0.487364 -52.502506 23.753757 -92.630112 -5.007977 83.236671 -5.643317 -77.340775 -15.951706 -25.778591 -0.000019 -0.000000 -0.000011 -7.168111 7.025313 -9.898565 -5.493073 -0.261452 -0.897556 10.908311 0.774738 0.879282 -35.810257 -0.370530 -2.818775 -22.260857 0.277021 -1.603446 7.241877 0.194910 0.135352 -27.325102 -0.812132 -1.702223 -36.925579 -1.344991 -2.169762 22.782129 -2.426657 -0.589110 -39.611828 1.022679 -3.370433 -32.359016 1.976735 -3.263176 70.066925 -3.691222 -5.389810 -23.274902 4.140878 2.221673 -22.710152 3.115319 1.272228 8.359180 4.144796 -9.587563 0.000000 -0.000000 0.000000 5.560633 9.619878 -4.288831 -0.000001 -0.000002 -0.000000 16.755951 11.664232 -8.793269 0.000000 -0.000000 0.000000 -5.355701 -0.592136 -0.474230 -0.000000 -0.000001 0.000002
0.329498 8.819657 0.129766 -168.161118 8.448763 -168.522598 12.489028 13.460051 -5.852545 1.026070 -2.164701 -2.953485 -9.595039 4.069932 -5.183339 -0.188729 3.660825 -6.985704 -12.922176 2.077863 -0.495417 -36.363815 -2.183863 88.198669 1.778277 -74.174179 -2.359601 111.513611 -19.297333 -63.641579 -0.000013 0.000009 0.000010 6.818653 -11.888716 -2.307834 -2.435982 -4.746960 -1.516880 -10.908316 -0.774764 0.879480 35.909626 1.172163 -0.022204 22.287991 1.027693 -0.280941 -7.241926 -0.194838 0.135344 27.387114 0.843205 -0.114292 37.020382 1.071069 -0.071658 -22.782181 2.426629 -0.589164 39.720078 0.001977 -0.987902 32.505692 0.911150 -0.261198 -70.066925 3.691231 -5.390122 23.771248 0.783100 -1.103216 22.988199 -0.142565 -0.174627 -11.981190 5.292711 -0.471226 -51.836575 24.578217 -92.544388 -18.698631 87.986343 -19.362560 -82.126785 -13.296423 -24.926788 -0.000002 -0.000000 0.000009 -7.168106 7.025311 -9.898568 -5.493079 -0.261445 -0.897557 10.908331 0.774748 0.879303 -35.810265 -0.370537 -2.818772 -22.260853 0.277019 -1.603439 7.241889 0.194912 0.135379 -27.325106 -0.812128 -1.702225 -36.925575 -1.344989 -2.169759 22.782148 -2.426660 -0.589083 -39.611820 1.022674 -3.370429 -32.359020 1.976737 -3.263179 70.066948 -3.691239 -5.389793 -23.274902 4.140883 2.221674 -22.710154 3.115310 1.272229 8.397574 3.937373 -10.263362 -0.000000 -0.000000 0.000000 5.682977 9.653743 -4.158234 -0.000000 -0.000000 0.000004 16.727512 11.431624 -9.443010 -0.000000 0.000000 0.000000 -5.243817 -0.507553 -0.442956 -0.000000 -0.000001 0.000005
0.326407 8.821998 0.140054 -168.133118 8.188385 -168.160309 12.523062 13.550792 -5.634225 1.035258 -2.185172 -2.689027 -9.201332 4.148474 -6.475791 -0.198590 3.851501 -9.631389 -12.845129 1.999983 -0.496544 -35.868172 -2.627783 88.123650 1.886562 -74.860413 -2.472008 112.209473 -20.059561 -63.875023 -0.000003 0.000019 0.000004 6.818650 -11.888718 -2.307832 -2.435981 -4.746965 -1.516881 -10.908313 -0.774738 0.879476 35.909626 1.172161 -0.022203 22.287992 1.027693 -0.280941 -7.241932 -0.194818 0.135342 27.387114 0.843202 -0.114290 37.020378 1.071072 -0.071660 -22.782179 2.426651 -0.589170 39.720078 0.001976 -0.987902 32.505688 0.911150 -0.261195 -70.066925 3.691243 -5.390144 23.771248 0.783104 -1.103216 22.988199 -0.142568 -0.174623 -11.498227 5.125741 -0.455514 -51.517284 25.239435 -92.582024 -164.070007 87.461952 -164.759415 -87.092186 -10.123734 -24.444695 0.000015 -0.000007 0.000015 -7.168108 7.025305 -9.898568 -5.493077 -0.261445 -0.897554 10.908347 0.774750 0.879305 -35.810272 -0.370534 -2.818772 -22.260855 0.277021 -1.603439 7.241903 0.194915 0.135380 -27.325106 -0.812133 -1.702225 -36.925575 -1.344987 -2.169762 22.782152 -2.426653 -0.589081 -39.611828 1.022669 -3.370431 -32.359020 1.976741 -3.263174 70.066963 -3.691244 -5.389794 -23.274906 4.140882 2.221673 -22.710154 3.115311 1.272228 8.433010 3.737517 -10.734806 -0.000000 -0.000000 0.000000 5.768004 9.641167 -4.056834 -0.000000 0.000001 -0.000000 16.721016 11.200323 -9.889599 -0.000000 -0.000000 0.000000 -5.170061 -0.495082 -0.429499 -0.000000 -0.000001 0.000010
0.324194 8.823168 0.143892 -168.123062 7.918539 -168.030167 12.585307 13.596905 -5.216630 1.076965 -2.205833 -2.260108 -8.770172 4.138521 -7.751627 -0.197224 3.825095 -12.071090 -12.767794 1.893332 -0.497406 -35.393661 -3.202084 88.021645 2.003754 -75.538223 -2.593264 112.899513 -20.817350 -64.105331 -0.000003 0.000017 0.000004 6.818651 -11.888713 -2.307833 -2.435982 -4.746965 -1.516878 -10.908300 -0.774753 0.879476 35.909626 1.172161 -0.022204 22.287989 1.027691 -0.280938 -7.241920 -0.194828 0.135343 27.387114 0.843209 -0.114293 37.020370 1.071065 -0.071658 -22.782171 2.426640 -0.589167 39.720078 0.001982 -0.987900 32.505680 0.911147 -0.261200 -70.066925 3.691235 -5.390131 23.771254 0.783101 -1.103212 22.988195 -0.142570 -0.174624 -11.060503 4.930370 -0.440879 -51.545765 25.620502 -92.737450 -173.235748 83.696037 -173.947769 -91.425987 -4.896023 -24.411028 0.000003 -0.000000 0.000002 -7.168104 7.025305 -9.898572 -5.493080 -0.261449 -0.897557 10.908334 0.774748 0.879290 -35.810265 -0.370534 -2.818774 -22.260855 0.277020 -1.603439 7.241902 0.194917 0.135368 -27.325106 -0.812137 -1.702223 -36.925579 -1.344989 -2.169768 22.782156 -2.426656 -0.589093 -39.611828 1.022674 -3.370429 -32.359016 1.976738 -3.263180 70.066925 -3.691225 -5.389802 -23.274902 4.140880 2.221672 -22.710157 3.115317 1.272229 8.459881 3.546899 -10.955622 -0.000000 -0.000000 0.000000 5.812279 9.575610 -3.990763 -0.000001 -0.000001 -0.000005 16.735203 10.971785 -10.087878 -0.000000 0.000000 0.000000 -5.137689 -0.567474 -0.438069 -0.000000 -0.000001 0.000008
